# xmcd
#
# Track frame offsets:
#	150
#	23850
#	42820
#	64522
#	82830
#	96515
#	116777
#	136512
#	158877
#	178032
#	200592
#	219865
#	238795
#
# Disc length: 3347
#
# Revision: 5
# Processed by: cddbd v1.5.1PL0 Copyright (c) Steve Scherf et al.
# Submitted via: ExactAudioCopy v0.90b4
# Normalized: r4:DSETVAR1
#
DISCID=a80d110d
DTITLE=Various Artist - Sweet Emotion - Blues on Fire
DYEAR=2001
DGENRE=Blues
TTITLE0=Otis Clay - Cryin'
TTITLE1=Gerald McClendon - Pink
TTITLE2=Pinetop Perkins and Rusty Zinn with Ronnie Brooks - Walk This Way
TTITLE3=Cathy Richardson with Wayne Baker Brooks - Last Child
TTITLE4=Marshall Crenshaw and Sugar Blue - Big Ten Inch Record
TTITLE5=Lou Ann Barton - One Way Street
TTITLE6=Lou Gramm with Sugaar Blue - Back In The Saddle
TTITLE7=Kim McFarland - Dream On
TTITLE8=Tad Robinson - Draw The Line
TTITLE9=Joe Louis Walker - Rag Doll
TTITLE10=Donald Kinsey - Sweet Emotion
TTITLE11=Crystal Taliefero with Joanna Connor - Dude (Looks Like A Lady)
TTITLE12=David 'Homeboy' Edwards - Train Kept A Rollin'
EXTD=Famous Blues Artists Cover Famous Aerosmith Tracks
EXTT0=
EXTT1=
EXTT2=
EXTT3=
EXTT4=
EXTT5=
EXTT6=
EXTT7=
EXTT8=
EXTT9=
EXTT10=
EXTT11=
EXTT12=
PLAYORDER=
